<?xml version="1.0"?>
<svg xmlns="http://www.w3.org/2000/svg" height="512px" viewBox="-67 0 512 512" width="512px" class=""><g><path d="m15.070312 1.378906c-3.09375-1.816406-6.917968-1.839844-10.03125-.058594-3.113281 1.78125-5.0312495 5.09375-5.0312495 8.679688v296.90625c0 5.523438 4.4765625 10 9.9999995 10 5.519532 0 10-4.476562 10-10v-278.164062c37.390626 28.53125 60 73.433593 60 121.042968v92.917969l-28.65625 25.550781c-2.128906 1.894532-3.34375 4.609375-3.34375 7.460938v202.277344c0 7.722656-6.285156 14.003906-14.007812 14.003906-7.714844 0-13.992188-6.277344-13.992188-13.992188v-89.003906c0-5.523438-4.480468-10-10-10-5.523437 0-9.9999995 4.476562-9.9999995 10v89.003906c0 18.746094 15.2499995 33.996094 33.9921875 33.996094 18.75 0 34.007812-15.253906 34.007812-34.003906v-197.796875l28.652344-25.546875c2.128906-1.898438 3.347656-4.613282 3.347656-7.464844v-97.402344c0-60.761718-32.546874-117.628906-84.9375-148.40625zm0 0" data-original="#000000" class="active-path" data-old_color="#000000" fill="#F5F6F5"/><path d="m10.011719 359.511719c2.628906 0 5.199219-1.070313 7.066406-2.933594 1.859375-1.867187 2.921875-4.4375 2.921875-7.078125 0-2.628906-1.0625-5.210938-2.921875-7.070312-1.867187-1.859376-4.4375-2.917969-7.066406-2.917969-2.640625 0-5.210938 1.058593-7.082031 2.917969-1.859376 1.859374-2.929688 4.441406-2.929688 7.070312 0 2.640625 1.070312 5.210938 2.929688 7.078125 1.871093 1.863281 4.441406 2.933594 7.082031 2.933594zm0 0" data-original="#000000" class="active-path" data-old_color="#000000" fill="#F5F6F5"/><path d="m368 0c-5.523438 0-10 4.476562-10 10v109.75h-28v-109.75c0-5.523438-4.476562-10-10-10s-10 4.476562-10 10v109.75h-28v-109.75c0-5.523438-4.476562-10-10-10s-10 4.476562-10 10v109.75h-28v-109.75c0-5.523438-4.476562-10-10-10s-10 4.476562-10 10v119.75c0 30.007812 22.808594 54.78125 52 57.910156v126.402344c-3.054688 3.273438-5.070312 7.558594-5.496094 12.390625l-11.769531 133.417969c-1.183594 13.441406 3.339844 26.832031 12.414063 36.742187 8.953124 9.777344 21.65625 15.386719 34.851562 15.386719s25.898438-5.609375 34.851562-15.386719c9.074219-9.910156 13.597657-23.300781 12.414063-36.738281l-11.769531-133.421875c-.425782-4.828125-2.441406-9.117187-5.496094-12.390625v-55.394531c0-5.523438-4.476562-10-10-10s-10 4.476562-10 10v48.882812h-20v-119.550781h33.75c32.117188 0 58.25-26.132812 58.25-58.25v-119.75c0-5.523438-4.476562-10-10-10zm-57.035156 327.550781c.308594 0 .574218.289063.609375.660157l11.769531 133.421874c.703125 7.980469-1.867188 15.605469-7.242188 21.472657-5.25 5.738281-12.390624 8.894531-20.101562 8.894531s-14.851562-3.15625-20.101562-8.894531c-5.375-5.867188-7.945313-13.492188-7.242188-21.472657l11.769531-133.421874c.035157-.371094.300781-.664063.609375-.664063h29.929688zm8.785156-159.550781h-47.5c-17.632812 0-32.507812-11.996094-36.914062-28.25h121.328124c-4.40625 16.253906-19.28125 28.25-36.914062 28.25zm0 0" data-original="#000000" class="active-path" data-old_color="#000000" fill="#F5F6F5"/><path d="m308.929688 210.929688c-1.859376 1.859374-2.929688 4.441406-2.929688 7.070312s1.070312 5.210938 2.929688 7.070312c1.859374 1.859376 4.441406 2.929688 7.070312 2.929688s5.210938-1.070312 7.070312-2.929688c1.859376-1.859374 2.929688-4.441406 2.929688-7.070312s-1.070312-5.210938-2.929688-7.070312c-1.859374-1.859376-4.441406-2.929688-7.070312-2.929688s-5.210938 1.070312-7.070312 2.929688zm0 0" data-original="#000000" class="active-path" data-old_color="#000000" fill="#F5F6F5"/></g> </svg>
